<?xml version="1.0" encoding="UTF-8"?>
<svg width="500px" height="205px" viewBox="0 0 500 205" version="1.1" xmlns="http://www.w3.org/2000/svg" xmlns:xlink="http://www.w3.org/1999/xlink">
    <!-- Generator: Sketch 43.2 (39069) - http://www.bohemiancoding.com/sketch -->
    <title>patrols</title>
    <desc>Created with Sketch.</desc>
    <defs></defs>
    <g id="Page-1" stroke="none" stroke-width="1" fill="none" fill-rule="evenodd">
        <g id="patrols" transform="translate(1.000000, 1.000000)">
            <g id="patrol" transform="translate(0.000000, 52.000000)">
                <rect id="Rectangle" stroke="#E0DFE2" fill="#FFFFFF" fill-rule="nonzero" x="0" y="0" width="498" height="47"></rect>
                <g id="MagicNumberConstant" transform="translate(12.000000, 16.000000)" font-size="15" font-family="Roboto-Regular, Roboto" fill="#232325" font-weight="normal">
                    <text>
                        <tspan x="0" y="14">MagicNumberConstant</tspan>
                    </text>
                </g>
                <g id="file-path" transform="translate(312.000000, 14.000000)">
                    <rect id="Rectangle" stroke="#575659" fill="#FFFFFF" fill-rule="nonzero" x="0" y="1" width="18" height="18" rx="2"></rect>
                    <g id="File-Path" transform="translate(23.000000, 0.000000)" font-size="17" font-family="Roboto-Regular, Roboto" fill="#232325" font-weight="normal">
                        <text>
                            <tspan x="0" y="16">File Path</tspan>
                        </text>
                    </g>
                </g>
                <g id="code" transform="translate(421.000000, 14.000000)">
                    <rect id="Rectangle" stroke="#43B4BB" fill="#43B4BB" fill-rule="nonzero" x="0" y="1" width="18" height="18" rx="2"></rect>
                    <path d="M6.75502125,14.8036003 L2.2050168,10.4453475 C1.93166107,10.1835118 1.93166107,9.7589751 2.2050168,9.4971132 L3.19494355,8.54887893 C3.46829929,8.28701708 3.91154191,8.28701708 4.18489764,8.54887893 L7.24999829,11.4847803 L13.8151024,5.19637674 C14.0884581,4.93454109 14.5317007,4.93454109 14.8050565,5.19637674 L15.7949832,6.14461103 C16.0683389,6.40644669 16.0683389,6.83098347 15.7949832,7.09284532 L7.74497534,14.8036265 C7.47159226,15.0654622 7.02837698,15.0654622 6.75502125,14.8036003 L6.75502125,14.8036003 Z" id="Path" fill="#FFFFFF" fill-rule="nonzero"></path>
                    <g id="Code" transform="translate(23.000000, 0.000000)" font-size="17" font-family="Roboto-Regular, Roboto" fill="#232325" font-weight="normal">
                        <text>
                            <tspan x="0" y="16">Code</tspan>
                        </text>
                    </g>
                </g>
            </g>
            <g id="patrol">
                <rect id="Rectangle" stroke="#E0DFE2" fill="#FFFFFF" fill-rule="nonzero" x="0" y="0" width="498" height="47"></rect>
                <g id="db/migrate" transform="translate(12.000000, 16.000000)" font-size="15" font-family="Roboto-Regular, Roboto" fill="#232325" font-weight="normal">
                    <text>
                        <tspan x="0" y="14">db/migrate</tspan>
                    </text>
                </g>
                <g id="file-path" transform="translate(312.000000, 14.000000)">
                    <rect id="Rectangle" stroke="#43B4BB" fill="#43B4BB" fill-rule="nonzero" x="0" y="1" width="18" height="18" rx="2"></rect>
                    <path d="M6.75502125,14.8036003 L2.2050168,10.4453475 C1.93166107,10.1835118 1.93166107,9.7589751 2.2050168,9.4971132 L3.19494355,8.54887893 C3.46829929,8.28701708 3.91154191,8.28701708 4.18489764,8.54887893 L7.24999829,11.4847803 L13.8151024,5.19637674 C14.0884581,4.93454109 14.5317007,4.93454109 14.8050565,5.19637674 L15.7949832,6.14461103 C16.0683389,6.40644669 16.0683389,6.83098347 15.7949832,7.09284532 L7.74497534,14.8036265 C7.47159226,15.0654622 7.02837698,15.0654622 6.75502125,14.8036003 L6.75502125,14.8036003 Z" id="Path" fill="#FFFFFF" fill-rule="nonzero"></path>
                    <g id="File-Path" transform="translate(23.000000, 0.000000)" font-size="17" font-family="Roboto-Regular, Roboto" fill="#232325" font-weight="normal">
                        <text>
                            <tspan x="0" y="16">File Path</tspan>
                        </text>
                    </g>
                </g>
                <g id="code" transform="translate(421.000000, 14.000000)">
                    <rect id="Rectangle" stroke="#575659" fill="#FFFFFF" fill-rule="nonzero" x="0" y="1" width="18" height="18" rx="2"></rect>
                    <g id="Code" transform="translate(23.000000, 0.000000)" font-size="17" font-family="Roboto-Regular, Roboto" fill="#232325" font-weight="normal">
                        <text>
                            <tspan x="0" y="16">Code</tspan>
                        </text>
                    </g>
                </g>
            </g>
            <g id="patrol" transform="translate(0.000000, 104.000000)">
                <rect id="Rectangle" stroke="#E0DFE2" fill="#FFFFFF" fill-rule="nonzero" x="0" y="0" width="498" height="47"></rect>
                <rect id="Rectangle" stroke="#E0DFE2" fill="#FFFFFF" fill-rule="nonzero" x="0" y="0" width="498" height="47"></rect>
                <g id=".test\.js" transform="translate(12.000000, 16.000000)" font-size="15" font-family="Roboto-Regular, Roboto" fill="#232325" font-weight="normal">
                    <text>
                        <tspan x="0" y="14">.test\.js</tspan>
                    </text>
                </g>
                <g id="file-path" transform="translate(312.000000, 14.000000)">
                    <rect id="Rectangle" stroke="#43B4BB" fill="#43B4BB" fill-rule="nonzero" x="0" y="1" width="18" height="18" rx="2"></rect>
                    <path d="M6.75502125,14.8036003 L2.2050168,10.4453475 C1.93166107,10.1835118 1.93166107,9.7589751 2.2050168,9.4971132 L3.19494355,8.54887893 C3.46829929,8.28701708 3.91154191,8.28701708 4.18489764,8.54887893 L7.24999829,11.4847803 L13.8151024,5.19637674 C14.0884581,4.93454109 14.5317007,4.93454109 14.8050565,5.19637674 L15.7949832,6.14461103 C16.0683389,6.40644669 16.0683389,6.83098347 15.7949832,7.09284532 L7.74497534,14.8036265 C7.47159226,15.0654622 7.02837698,15.0654622 6.75502125,14.8036003 L6.75502125,14.8036003 Z" id="Path" fill="#FFFFFF" fill-rule="nonzero"></path>
                    <g id="File-Path" transform="translate(23.000000, 0.000000)" font-size="17" font-family="Roboto-Regular, Roboto" fill="#232325" font-weight="normal">
                        <text>
                            <tspan x="0" y="16">File Path</tspan>
                        </text>
                    </g>
                </g>
                <g id="code" transform="translate(421.000000, 14.000000)">
                    <rect id="Rectangle" stroke="#575659" fill="#FFFFFF" fill-rule="nonzero" x="0" y="1" width="18" height="18" rx="2"></rect>
                    <g id="Code" transform="translate(23.000000, 0.000000)" font-size="17" font-family="Roboto-Regular, Roboto" fill="#232325" font-weight="normal">
                        <text>
                            <tspan x="0" y="16">Code</tspan>
                        </text>
                    </g>
                </g>
            </g>
            <g id="patrol" transform="translate(0.000000, 156.000000)">
                <rect id="Rectangle" stroke="#E0DFE2" fill="#FFFFFF" fill-rule="nonzero" x="0" y="0" width="498" height="47"></rect>
                <rect id="Rectangle" stroke="#E0DFE2" fill="#FFFFFF" fill-rule="nonzero" x="0" y="0" width="498" height="47"></rect>
                <g id="sales_record" transform="translate(12.000000, 16.000000)" font-size="15" font-family="Roboto-Regular, Roboto" fill="#232325" font-weight="normal">
                    <text>
                        <tspan x="0" y="14">sales_record</tspan>
                    </text>
                </g>
                <g id="file-path" transform="translate(312.000000, 14.000000)">
                    <rect id="Rectangle" stroke="#43B4BB" fill="#43B4BB" fill-rule="nonzero" x="0" y="1" width="18" height="18" rx="2"></rect>
                    <path d="M6.75502125,14.8036003 L2.2050168,10.4453475 C1.93166107,10.1835118 1.93166107,9.7589751 2.2050168,9.4971132 L3.19494355,8.54887893 C3.46829929,8.28701708 3.91154191,8.28701708 4.18489764,8.54887893 L7.24999829,11.4847803 L13.8151024,5.19637674 C14.0884581,4.93454109 14.5317007,4.93454109 14.8050565,5.19637674 L15.7949832,6.14461103 C16.0683389,6.40644669 16.0683389,6.83098347 15.7949832,7.09284532 L7.74497534,14.8036265 C7.47159226,15.0654622 7.02837698,15.0654622 6.75502125,14.8036003 L6.75502125,14.8036003 Z" id="Path" fill="#FFFFFF" fill-rule="nonzero"></path>
                    <g id="File-Path" transform="translate(23.000000, 0.000000)" font-size="17" font-family="Roboto-Regular, Roboto" fill="#232325" font-weight="normal">
                        <text>
                            <tspan x="0" y="16">File Path</tspan>
                        </text>
                    </g>
                </g>
                <g id="code" transform="translate(421.000000, 14.000000)">
                    <rect id="Rectangle" stroke="#43B4BB" fill="#43B4BB" fill-rule="nonzero" x="0" y="1" width="18" height="18" rx="2"></rect>
                    <path d="M6.75502125,14.8036003 L2.2050168,10.4453475 C1.93166107,10.1835118 1.93166107,9.7589751 2.2050168,9.4971132 L3.19494355,8.54887893 C3.46829929,8.28701708 3.91154191,8.28701708 4.18489764,8.54887893 L7.24999829,11.4847803 L13.8151024,5.19637674 C14.0884581,4.93454109 14.5317007,4.93454109 14.8050565,5.19637674 L15.7949832,6.14461103 C16.0683389,6.40644669 16.0683389,6.83098347 15.7949832,7.09284532 L7.74497534,14.8036265 C7.47159226,15.0654622 7.02837698,15.0654622 6.75502125,14.8036003 L6.75502125,14.8036003 Z" id="Path" fill="#FFFFFF" fill-rule="nonzero"></path>
                    <g id="Code" transform="translate(23.000000, 0.000000)" font-size="17" font-family="Roboto-Regular, Roboto" fill="#232325" font-weight="normal">
                        <text>
                            <tspan x="0" y="16">Code</tspan>
                        </text>
                    </g>
                </g>
            </g>
        </g>
    </g>
</svg>