<?xml version="1.0" encoding="UTF-8"?>
<svg width="628px" height="409px" viewBox="0 0 628 409" version="1.1" xmlns="http://www.w3.org/2000/svg" xmlns:xlink="http://www.w3.org/1999/xlink">
    <!-- Generator: Sketch 53.2 (72643) - https://sketchapp.com -->
    <title>Landing</title>
    <desc>Created with Sketch.</desc>
    <defs>
        <linearGradient x1="49.3120631%" y1="50.5387214%" x2="49.5779256%" y2="50.5387214%" id="linearGradient-1">
            <stop stop-color="#4CA7F2" offset="0%"></stop>
            <stop stop-color="#59B4FE" offset="100%"></stop>
        </linearGradient>
        <linearGradient x1="49.3120631%" y1="50.5387214%" x2="49.5779256%" y2="50.5387214%" id="linearGradient-2">
            <stop stop-color="#4CA7F2" offset="0%"></stop>
            <stop stop-color="#59B4FE" offset="100%"></stop>
        </linearGradient>
        <linearGradient x1="49.3120631%" y1="50.5387214%" x2="49.5779256%" y2="50.5387214%" id="linearGradient-3">
            <stop stop-color="#4CA7F2" offset="0%"></stop>
            <stop stop-color="#59B4FE" offset="100%"></stop>
        </linearGradient>
        <linearGradient x1="49.3120631%" y1="50.5387214%" x2="49.5779256%" y2="50.5387214%" id="linearGradient-4">
            <stop stop-color="#4CA7F2" offset="0%"></stop>
            <stop stop-color="#59B4FE" offset="100%"></stop>
        </linearGradient>
        <linearGradient x1="49.3120631%" y1="50.5387214%" x2="49.5779256%" y2="50.5387214%" id="linearGradient-5">
            <stop stop-color="#B23534" offset="0%"></stop>
            <stop stop-color="#DD3B34" offset="100%"></stop>
        </linearGradient>
    </defs>
    <g id="Page-1" stroke="none" stroke-width="1" fill="none" fill-rule="evenodd">
        <g id="Landing" transform="translate(-650.000000, -102.000000)">
            <g id="hero" transform="translate(0.000000, 18.000000)">
                <path d="M0,42 L1280,42 L1280,574 C1066.66667,536.666667 853.333333,518 640,518 C426.666667,518 213.333333,536.666667 0,574 L0,42 Z" id="Rectangle" stroke="#E0DFE2" fill="#FFFFFF"></path>
                <g id="code" transform="translate(651.000000, 120.000000)">
                    <rect id="Rectangle" fill="#CD4EA1" x="71" y="0" width="165" height="7" rx="3.5"></rect>
                    <rect id="Rectangle" fill="#EE8E53" x="100" y="28" width="165" height="7" rx="3.5"></rect>
                    <rect id="Rectangle" fill="#7586BE" x="65" y="56" width="165" height="7" rx="3.5"></rect>
                    <rect id="Rectangle" fill="#D3C561" x="117" y="308" width="76" height="7" rx="3.5"></rect>
                    <rect id="Rectangle" fill="#D3C561" x="6" y="308" width="94" height="7" rx="3.5"></rect>
                    <rect id="Rectangle" fill="#A2C96B" x="35" y="336" width="165" height="7" rx="3.5"></rect>
                    <rect id="Rectangle" fill="#9D7CC6" x="0" y="364" width="165" height="7" rx="3.5"></rect>
                    <rect id="Rectangle" fill="#86B86F" x="439" y="245" width="165" height="7" rx="3.5"></rect>
                    <rect id="Rectangle" fill="#CD6565" x="456" y="271" width="165" height="7" rx="3.5"></rect>
                    <rect id="Rectangle" fill="#5399AC" x="423" y="297" width="165" height="7" rx="3.5"></rect>
                </g>
                <g id="pete-v2" transform="translate(848.000000, 87.000000)">
                    <ellipse id="float" fill-opacity="0.125198143" fill="#000000" cx="126.837333" cy="356.105455" rx="70.1653333" ry="15.8945455"></ellipse>
                    <g id="Group">
                        <g id="body" transform="translate(0.000000, 122.421818)">
                            <path d="M102.918353,95.9454002 C110.121852,95.1090728 118.088998,94.6909091 126.81979,94.6909091 C135.550582,94.6909091 143.517727,95.1090728 150.721226,95.9454001 L150.721226,95.9453996 C161.830372,97.2351731 169.790546,107.286483 168.500772,118.395629 C168.476921,118.60107 168.449923,118.806134 168.419789,119.010748 L158.410771,186.972918 C157.150125,195.532825 150.590223,202.34615 142.084223,203.930195 C136.996079,204.877744 131.907934,205.351519 126.81979,205.351519 C121.731646,205.351519 116.643502,204.877745 111.555359,203.930196 L111.555358,203.930197 C103.049358,202.346151 96.4894553,195.532826 95.2288089,186.972919 L85.2197917,119.010747 C83.5902975,107.946328 91.2388152,97.6558781 102.303234,96.0263839 C102.507848,95.9962497 102.712912,95.9692519 102.918353,95.9454002 Z" id="bottom" stroke="#1B1B1B" stroke-width="8.1" fill="url(#linearGradient-1)"></path>
                            <path d="M95.2552401,64.3781222 C104.623603,63.3939195 115.009499,62.9018182 126.412928,62.9018182 C137.9421,62.9018182 148.431174,63.4048319 157.880151,64.4108593 L157.880151,64.4108584 C174.244035,66.1531121 186.965718,79.4432828 187.991387,95.8676591 C188.59617,105.552251 188.060857,115.418183 186.385449,125.465455 C183.955438,140.038012 179.25428,154.229092 172.281974,168.038696 L172.281974,168.038697 C167.525476,177.459592 158.635975,184.113172 148.256351,186.021304 C140.97521,187.359829 133.694069,188.029091 126.412928,188.029091 C119.271119,188.029091 112.12931,187.385198 104.987502,186.097411 L104.987502,186.097412 C94.4879155,184.204163 85.5017661,177.457865 80.7534554,167.903848 C73.493296,153.295771 68.7222799,139.14964 66.4404071,125.465455 C64.8129779,115.705908 64.3732944,105.711392 65.1213567,95.481906 L65.1213566,95.481906 C66.3129919,79.1867162 79.0059611,66.0852065 95.2552401,64.3781222 Z" stroke="#1B1B1B" stroke-width="8.1" fill="url(#linearGradient-2)"></path>
                            <g id="arms" transform="translate(62.744000, 115.658182)" stroke="#1B1B1B" stroke-width="8.1">
                                <path d="M90.7862216,2.60823981 L112.379022,2.6241978 C114.241037,2.62557391 115.750154,4.13469302 115.751527,5.99670768 L115.794644,64.4559356 C115.795162,65.1586658 115.576312,65.844032 115.168627,66.4164151 C110.91147,72.3933865 106.526738,75.3802048 102.014431,75.37687 C97.5117744,75.3735424 92.9006992,72.3928515 88.1812053,66.4347975 L88.1811983,66.434803 C87.7093401,65.8391127 87.4523287,65.1016092 87.4517682,64.341677 L87.4087282,5.98572809 C87.4073535,4.12176757 88.9172776,2.60961455 90.7812381,2.60823981 C90.7828993,2.60823858 90.7845604,2.60823858 90.7862216,2.60823981 Z" id="Rectangle-5" fill="#59B4FF" transform="translate(101.601686, 38.992556) rotate(18.000000) translate(-101.601686, -38.992556) "></path>
                                <path d="M13.8771468,2.60823981 L35.4699472,2.6241978 C37.3319618,2.62557391 38.8410787,4.13469302 38.842452,5.99670768 L38.8855693,64.4559356 C38.8860876,65.1586658 38.6672375,65.844032 38.259552,66.4164151 C34.002395,72.3933865 29.6176631,75.3802048 25.1053562,75.37687 C20.6026996,75.3735424 15.9916244,72.3928515 11.2721305,66.4347975 L11.2721235,66.434803 C10.8002653,65.8391127 10.5432538,65.1016092 10.5426934,64.341677 L10.4996534,5.98572809 C10.4982787,4.12176757 12.0082028,2.60961455 13.8721633,2.60823981 C13.8738245,2.60823858 13.8754856,2.60823858 13.8771468,2.60823981 Z" id="Rectangle-5" fill="#4CA8F3" transform="translate(24.692611, 38.992556) scale(-1, 1) rotate(18.000000) translate(-24.692611, -38.992556) "></path>
                            </g>
                            <g id="ears" transform="translate(0.000000, 30.436364)">
                                <path d="M51.8419834,0.352401572 C56.1506556,0.117467191 60.4593278,7.60470348e-16 64.768,0 C69.0766722,7.60470353e-16 73.3853445,0.117467193 77.6940167,0.352401578 L77.6940167,0.352401654 C92.01326,1.13317179 103.224,12.9718408 103.224,27.3123543 L103.224,36.9421913 C103.224,51.2827048 92.0132598,63.1213738 77.6940166,63.9021439 C73.3853444,64.1370783 69.0766722,64.2545455 64.768,64.2545455 C60.4593278,64.2545455 56.1506555,64.1370783 51.8419833,63.9021439 L51.8419833,63.9021438 C37.52274,63.1213737 26.312,51.2827047 26.312,36.9421911 L26.3120001,27.3123542 C26.3120001,12.9718407 37.5227402,1.1331717 51.8419834,0.352401572 Z" id="Rectangle" stroke="#1B1B1B" stroke-width="8.1" fill="url(#linearGradient-3)"></path>
                                <path d="M175.305983,0.352401572 C179.614656,0.117467191 183.923328,7.60470348e-16 188.232,0 C192.540672,7.60470353e-16 196.849344,0.117467193 201.158017,0.352401578 L201.158017,0.352401654 C215.47726,1.13317179 226.688,12.9718408 226.688,27.3123543 L226.688,36.9421913 C226.688,51.2827048 215.47726,63.1213738 201.158017,63.9021439 C196.849344,64.1370783 192.540672,64.2545455 188.232,64.2545455 C183.923328,64.2545455 179.614656,64.1370783 175.305983,63.9021439 L175.305983,63.9021438 C160.98674,63.1213737 149.776,51.2827047 149.776,36.9421911 L149.776,27.3123542 C149.776,12.9718407 160.98674,1.1331717 175.305983,0.352401572 Z" id="Rectangle" stroke="#1B1B1B" stroke-width="8.1" fill="url(#linearGradient-3)"></path>
                                <path d="M20.2348824,25.7018182 L26.9866667,25.7018182 L26.9866667,38.5527273 L20.2348824,38.5527273 C18.2197425,41.416682 14.8937731,43.2872727 11.132,43.2872727 C4.98396617,43.2872727 0,38.2907705 0,32.1272727 C0,25.9637749 4.98396617,20.9672727 11.132,20.9672727 C14.8937731,20.9672727 18.2197425,22.8378635 20.2348824,25.7018182 Z" id="Combined-Shape" fill="#1B1B1B"></path>
                                <path d="M246.248216,26.3781818 L253,26.3781818 L253,39.2290909 L246.248216,39.2290909 C244.233076,42.0930456 240.907106,43.9636364 237.145333,43.9636364 C230.997299,43.9636364 226.013333,38.9671342 226.013333,32.8036364 C226.013333,26.6401386 230.997299,21.6436364 237.145333,21.6436364 C240.907106,21.6436364 244.233076,23.5142271 246.248216,26.3781818 Z" id="Combined-Shape" fill="#1B1B1B" transform="translate(239.506667, 32.803636) scale(-1, 1) translate(-239.506667, -32.803636) "></path>
                            </g>
                            <path d="M82.4658334,2.11914785 C97.1438889,0.706382616 111.821944,2.60236408e-15 126.5,0 C141.178055,2.60236404e-15 155.856111,0.706382591 170.534166,2.11914777 L170.534166,2.11914717 C187.841299,3.78496151 201.050667,18.3267784 201.050667,35.7138941 L201.050668,89.4133774 C201.050668,106.800493 187.8413,121.34231 170.534167,123.008125 C155.856111,124.42089 141.178056,125.127273 126.5,125.127273 C111.821945,125.127273 97.1438895,124.42089 82.4658342,123.008125 L82.4658341,123.008126 C65.1587011,121.342311 51.9493333,106.800494 51.9493333,89.4133786 L51.9493322,35.7138953 C51.9493322,18.3267794 65.1587002,3.78496224 82.4658334,2.11914785 Z" id="head" stroke="#1B1B1B" stroke-width="8.1" fill="url(#linearGradient-4)"></path>
                            <polyline id="Line-3" stroke="#1B1B1B" stroke-width="8.1" stroke-linecap="square" points="196.665333 78.4581818 178.786667 78.4581818 161.245333 98.7490909 125.488 98.7490909 90.4053333 98.7490909 72.864 78.4581818 54.648 78.4581818"></polyline>
                        </g>
                        <g id="eyes" transform="translate(84.333333, 157.592727)">
                            <g id="Group-4">
                                <ellipse id="Oval-3" stroke="#1B1B1B" stroke-width="8.1" fill="#43B4BB" cx="15.8546667" cy="15.8945455" rx="15.8546667" ry="15.8945455"></ellipse>
                                <ellipse id="Oval-4" fill="#FFFFFF" cx="8.77066667" cy="14.2036364" rx="3.37333333" ry="3.38181818"></ellipse>
                                <ellipse id="Oval-4" fill="#FFFFFF" cx="10.7946667" cy="8.79272727" rx="2.024" ry="2.02909091"></ellipse>
                            </g>
                            <g id="Group-4" transform="translate(53.973333, 0.000000)">
                                <ellipse id="Oval-3" stroke="#1B1B1B" stroke-width="8.1" fill="#57D9E0" cx="15.8546667" cy="15.8945455" rx="15.8546667" ry="15.8945455"></ellipse>
                                <ellipse id="Oval-4" fill="#FFFFFF" cx="8.77066667" cy="14.2036364" rx="3.37333333" ry="3.38181818"></ellipse>
                                <ellipse id="Oval-4" fill="#FFFFFF" cx="10.7946667" cy="8.79272727" rx="2.024" ry="2.02909091"></ellipse>
                            </g>
                        </g>
                        <g id="siren" transform="translate(60.045333, 0.000000)">
                            <path d="M51.7410005,67.110788 C56.0491854,66.5593536 60.9537411,66.2836364 66.4546677,66.2836364 C71.9555922,66.2836364 76.8601461,66.5593534 81.1683295,67.1107874 L81.1683298,67.1107846 C87.322425,67.8984895 92.1473271,72.7793721 92.8639915,78.9421441 L96.9998718,114.507598 C97.8611028,121.913534 92.5555715,128.615396 85.1496359,129.476627 C85.1365425,129.47815 85.1234468,129.479653 85.1103489,129.481138 C78.8917885,130.185834 72.6732281,130.538182 66.4546677,130.538182 C60.2361067,130.538182 54.0175458,130.185834 47.7989848,129.481137 L47.7989849,129.481136 C40.3905582,128.641603 35.0654181,121.95531 35.9049516,114.546883 C35.9064359,114.533786 35.9079393,114.52069 35.9094619,114.507597 L40.0453415,78.9421458 C40.7620056,72.7793749 45.5869065,67.8984931 51.7410005,67.110788 Z" id="Rectangle" stroke="#1B1B1B" stroke-width="8.1" fill="url(#linearGradient-5)"></path>
                            <path d="M60.0453333,77.7818182 C55.8211997,78.3533807 53.2020347,79.3276349 52.1878385,80.704581 C51.1736424,82.081527 49.5199184,92.8309091 47.2266667,112.952727" id="Line" stroke="#FFFFFF" stroke-width="2.7" stroke-linecap="square"></path>
                            <g id="highlights" stroke="#B23534" stroke-linecap="square" stroke-width="3.375">
                                <path d="M0.337333333,16.5709091 L33.8072631,59.0198789" id="Line-2"></path>
                                <path d="M66.1173333,0 L66.1173333,54.1090909" id="Line-2"></path>
                                <path d="M93.4413333,23.3345455 L83.6586667,54.1090909" id="Line-2"></path>
                                <path d="M48.2386667,22.6581818 L38.456,53.4327273" id="Line-2" transform="translate(43.516000, 37.876364) scale(-1, 1) translate(-43.516000, -37.876364) "></path>
                                <path d="M97.8266667,16.9090909 L131.296596,59.3580607" id="Line-2" transform="translate(114.561632, 38.133576) scale(-1, 1) translate(-114.561632, -38.133576) "></path>
                            </g>
                        </g>
                    </g>
                </g>
            </g>
        </g>
    </g>
</svg>