<?xml version="1.0" encoding="UTF-8"?>
<svg width="34px" height="35px" viewBox="0 0 34 35" version="1.1" xmlns="http://www.w3.org/2000/svg" xmlns:xlink="http://www.w3.org/1999/xlink">
    <!-- Generator: Sketch 53.2 (72643) - https://sketchapp.com -->
    <title>pete head</title>
    <desc>Created with Sketch.</desc>
    <defs>
        <linearGradient x1="49.3120631%" y1="50.5387214%" x2="49.5779256%" y2="50.5387214%" id="linearGradient-1">
            <stop stop-color="#4CA7F2" offset="0%"></stop>
            <stop stop-color="#59B4FE" offset="100%"></stop>
        </linearGradient>
        <linearGradient x1="49.3120631%" y1="50.5387214%" x2="49.5779256%" y2="50.5387214%" id="linearGradient-2">
            <stop stop-color="#4CA7F2" offset="0%"></stop>
            <stop stop-color="#59B4FE" offset="100%"></stop>
        </linearGradient>
        <linearGradient x1="49.3120631%" y1="50.5387214%" x2="49.5779256%" y2="50.5387214%" id="linearGradient-3">
            <stop stop-color="#B23534" offset="0%"></stop>
            <stop stop-color="#DD3B34" offset="100%"></stop>
        </linearGradient>
    </defs>
    <g id="Page-1" stroke="none" stroke-width="1" fill="none" fill-rule="evenodd">
        <g id="Landing" transform="translate(-45.000000, -2068.000000)">
            <g id="footer" transform="translate(0.000000, 2044.000000)">
                <rect id="Rectangle" stroke="#E0DFE2" fill="#FFFFFF" x="0" y="0" width="1280" height="170"></rect>
                <g id="pete-head" transform="translate(45.000000, 25.000000)">
                    <g id="Group">
                        <g id="body" transform="translate(0.000000, 16.319672)">
                            <g id="ears" transform="translate(0.000000, 4.057377)">
                                <path d="M6.93838661,0.0485328123 C7.52692441,0.0161776041 8.1154622,1.03040367e-16 8.704,0 C9.29254274,1.03041232e-16 9.88108547,0.0161778756 10.4696282,0.0485336268 L10.4696275,0.0485464648 C12.3781832,0.153471307 13.872,1.73166796 13.872,3.64310567 L13.8719945,4.92247436 C13.8719945,6.83391659 12.3781737,8.41211675 10.4696134,8.51704096 C9.88107559,8.54939617 9.2925378,8.56557377 8.704,8.56557377 C8.11545726,8.56557377 7.52691453,8.54939589 6.93837179,8.51704014 L6.9383725,8.51702731 C5.02981679,8.41210246 3.536,6.83390581 3.536,4.9224681 L3.53600555,3.64309941 C3.53600555,1.73165718 5.02982633,0.153457025 6.93838661,0.0485328123 Z" id="Rectangle" stroke="#1B1B1B" stroke-width="1.08" fill="url(#linearGradient-1)"></path>
                                <path d="M23.5303866,0.0485328123 C24.1189244,0.0161776041 24.7074622,1.03040367e-16 25.296,0 C25.8845427,1.03041232e-16 26.4730855,0.0161778756 27.0616282,0.0485336268 L27.0616275,0.0485464648 C28.9701832,0.153471307 30.464,1.73166796 30.464,3.64310567 L30.4639945,4.92247436 C30.4639945,6.83391659 28.9701737,8.41211675 27.0616134,8.51704096 C26.4730756,8.54939617 25.8845378,8.56557377 25.296,8.56557377 C24.7074573,8.56557377 24.1189145,8.54939589 23.5303718,8.51704014 L23.5303725,8.51702731 C21.6218168,8.41210246 20.128,6.83390581 20.128,4.9224681 L20.1280055,3.64309941 C20.1280055,1.73165718 21.6218263,0.153457025 23.5303866,0.0485328123 Z" id="Rectangle" stroke="#1B1B1B" stroke-width="1.08" fill="url(#linearGradient-1)"></path>
                                <path d="M2.71931225,3.42622951 L3.62666667,3.42622951 L3.62666667,5.13934426 L2.71931225,5.13934426 C2.44850294,5.52112917 2.00153473,5.7704918 1.496,5.7704918 C0.669782014,5.7704918 0,5.10442362 0,4.28278689 C0,3.46115015 0.669782014,2.79508197 1.496,2.79508197 C2.00153473,2.79508197 2.44850294,3.0444446 2.71931225,3.42622951 Z" id="Combined-Shape" fill="#1B1B1B"></path>
                                <path d="M33.0926456,3.51639344 L34,3.51639344 L34,5.2295082 L33.0926456,5.2295082 C32.8218363,5.6112931 32.3748681,5.86065574 31.8693333,5.86065574 C31.0431153,5.86065574 30.3733333,5.19458756 30.3733333,4.37295082 C30.3733333,3.55131408 31.0431153,2.8852459 31.8693333,2.8852459 C32.3748681,2.8852459 32.8218363,3.13460854 33.0926456,3.51639344 Z" id="Combined-Shape" fill="#1B1B1B" transform="translate(32.186667, 4.372951) scale(-1, 1) translate(-32.186667, -4.372951) "></path>
                            </g>
                            <path d="M11.0514192,0.285459331 C13.0342794,0.0951531103 15.0171397,3.48727223e-16 17,0 C18.9828605,3.48727269e-16 20.9657211,0.0951531354 22.9485816,0.285459406 L22.9485816,0.285459573 C25.2567264,0.506985199 27.0186667,2.4461251 27.0186667,4.76487603 L27.0186608,11.9154577 C27.0186608,14.2342058 25.2567227,16.1733432 22.9485808,16.3948685 C20.9657206,16.5851748 18.9828603,16.6803279 17,16.6803279 C15.0171395,16.6803279 13.0342789,16.5851747 11.0514184,16.3948685 L11.0514184,16.3948683 C8.74327363,16.1733427 6.98133333,14.2342028 6.98133333,11.9154518 L6.9813392,4.76487012 C6.9813392,2.44612211 8.74327729,0.50698465 11.0514192,0.285459331 Z" id="head" stroke="#1B1B1B" stroke-width="1.08" fill="url(#linearGradient-2)"></path>
                            <polyline id="Line-3" stroke="#1B1B1B" stroke-width="1.08" stroke-linecap="square" points="26.4293333 10.4590164 24.0266667 10.4590164 21.6693333 13.1639344 16.864 13.1639344 12.1493333 13.1639344 9.792 10.4590164 7.344 10.4590164"></polyline>
                        </g>
                        <g id="eyes" transform="translate(11.333333, 21.008197)">
                            <g id="Group-4">
                                <ellipse id="Oval-3" stroke="#1B1B1B" stroke-width="1.08" fill="#43B4BB" cx="2.13066667" cy="2.11885246" rx="2.13066667" ry="2.11885246"></ellipse>
                                <ellipse id="Oval-4" fill="#FFFFFF" cx="1.17866667" cy="1.89344262" rx="1" ry="1"></ellipse>
                                <ellipse id="Oval-4" fill="#FFFFFF" cx="1.45066667" cy="1.17213115" rx="1" ry="1"></ellipse>
                            </g>
                            <g id="Group-4" transform="translate(7.253333, 0.000000)">
                                <ellipse id="Oval-3" stroke="#1B1B1B" stroke-width="1.08" fill="#57D9E0" cx="2.13066667" cy="2.11885246" rx="2.13066667" ry="2.11885246"></ellipse>
                                <ellipse id="Oval-4" fill="#FFFFFF" cx="1.17866667" cy="1.89344262" rx="1" ry="1"></ellipse>
                                <ellipse id="Oval-4" fill="#FFFFFF" cx="1.45066667" cy="1.17213115" rx="1" ry="1"></ellipse>
                            </g>
                        </g>
                        <g id="siren" transform="translate(8.069333, 0.000000)">
                            <path d="M6.94048011,8.9479706 C7.52253895,8.87336725 8.18593451,8.83606557 8.9306668,8.83606557 C9.67539824,8.83606557 10.3387931,8.87336716 10.9208514,8.94797035 L10.9208518,8.94796718 C11.7406478,9.05304151 12.3835419,9.70290185 12.4797753,10.5237826 L13.0351313,15.261231 C13.1508788,16.248569 12.444315,17.1427965 11.4569769,17.258544 C11.4544481,17.2588404 11.4519186,17.2591315 11.4493885,17.2594172 C10.6098146,17.354232 9.77024071,17.4016393 8.9306668,17.4016393 C8.09109617,17.4016393 7.25152554,17.3542323 6.41195491,17.2594184 L6.41195389,17.2594274 C5.42411559,17.1478693 4.71375012,16.2566324 4.82530821,15.2687941 C4.82559397,15.2662637 4.8258851,15.263734 4.82618159,15.2612049 L5.38156578,10.5237771 C5.47779854,9.70290111 6.12068893,9.05304446 6.94048011,8.9479706 Z" id="Rectangle" stroke="#1B1B1B" stroke-width="1.08" fill="url(#linearGradient-3)"></path>
                            <path d="M8.06933333,10.3688525 C7.50166319,10.4450457 7.14968056,10.5749205 7.01338542,10.7584769 C6.87709028,10.9420333 6.65485069,12.375 6.34666667,15.057377" id="Line" stroke="#FFFFFF" stroke-width="0.5" stroke-linecap="square"></path>
                            <g id="highlights" stroke="#B23534" stroke-linecap="square" stroke-width="0.5">
                                <path d="M0.0453333333,2.20901639 L4.54326856,7.86775664" id="Line-2"></path>
                                <path d="M8.88533333,0 L8.88533333,7.21311475" id="Line-2"></path>
                                <path d="M12.5573333,3.11065574 L11.2426667,7.21311475" id="Line-2"></path>
                                <path d="M6.48266667,3.0204918 L5.168,7.12295082" id="Line-2" transform="translate(5.848000, 5.049180) scale(-1, 1) translate(-5.848000, -5.049180) "></path>
                                <path d="M13.1466667,2.25409836 L17.6446019,7.91283861" id="Line-2" transform="translate(15.395634, 5.083468) scale(-1, 1) translate(-15.395634, -5.083468) "></path>
                            </g>
                        </g>
                    </g>
                </g>
            </g>
        </g>
    </g>
</svg>