<?xml version="1.0" encoding="UTF-8"?>
<svg width="544px" height="228px" viewBox="0 0 544 228" version="1.1" xmlns="http://www.w3.org/2000/svg" xmlns:xlink="http://www.w3.org/1999/xlink">
    <!-- Generator: Sketch 53.2 (72643) - https://sketchapp.com -->
    <title>set up patrols</title>
    <desc>Created with Sketch.</desc>
    <defs>
        <linearGradient x1="49.3120631%" y1="50.5387214%" x2="49.5779256%" y2="50.5387214%" id="linearGradient-1">
            <stop stop-color="#4CA7F2" offset="0%"></stop>
            <stop stop-color="#59B4FE" offset="100%"></stop>
        </linearGradient>
        <linearGradient x1="49.3120631%" y1="50.5387214%" x2="49.5779256%" y2="50.5387214%" id="linearGradient-2">
            <stop stop-color="#4CA7F2" offset="0%"></stop>
            <stop stop-color="#59B4FE" offset="100%"></stop>
        </linearGradient>
        <linearGradient x1="49.3120631%" y1="50.5387214%" x2="49.5779256%" y2="50.5387214%" id="linearGradient-3">
            <stop stop-color="#B23534" offset="0%"></stop>
            <stop stop-color="#DD3B34" offset="100%"></stop>
        </linearGradient>
    </defs>
    <g id="Page-1" stroke="none" stroke-width="1" fill="none" fill-rule="evenodd">
        <g id="Landing" transform="translate(-77.000000, -1111.000000)">
            <g id="get-alerts" transform="translate(77.000000, 1111.000000)">
                <g id="slack">
                    <rect id="Rectangle" stroke="#E0DFE2" fill="#FFFFFF" x="0" y="0" width="521" height="209" rx="5"></rect>
                    <g id="pr-button" transform="translate(116.000000, 156.000000)">
                        <rect id="Rectangle" stroke="#575659" x="0" y="0" width="142" height="34" rx="3"></rect>
                        <text id="View-Pull-Request" font-family="Roboto-Bold, Roboto" font-size="14" font-weight="bold" fill="#232325">
                            <tspan x="14" y="22">View Pull Request</tspan>
                        </text>
                    </g>
                    <g id="app" transform="translate(182.000000, 26.000000)">
                        <rect id="Rectangle" fill="#E0DFE2" x="0" y="0" width="34" height="17" rx="2"></rect>
                        <text id="APP" font-family="Roboto-Regular, Roboto" font-size="12" font-weight="normal" fill="#575659">
                            <tspan x="6" y="13">APP</tspan>
                        </text>
                    </g>
                    <g id="slack-icon" transform="translate(447.000000, 130.000000)">
                        <rect id="Rectangle" fill="#4E1650" x="0" y="8.4" width="88.2" height="88.9" rx="13.3"></rect>
                        <g id="Group" transform="translate(11.900000, 54.600000)" fill="#E01E5A" fill-rule="nonzero">
                            <path d="M13.7816949,6.89084746 C13.7816949,10.5972881 10.7538983,13.6250847 7.04745763,13.6250847 C3.34101695,13.6250847 0.313220339,10.5972881 0.313220339,6.89084746 C0.313220339,3.18440678 3.34101695,0.156610169 7.04745763,0.156610169 L13.7816949,0.156610169 L13.7816949,6.89084746 Z" id="Path"></path>
                            <path d="M17.1749153,6.89084746 C17.1749153,3.18440678 20.2027119,0.156610169 23.9091525,0.156610169 C27.6155932,0.156610169 30.6433898,3.18440678 30.6433898,6.89084746 L30.6433898,23.7525424 C30.6433898,27.4589831 27.6155932,30.4867797 23.9091525,30.4867797 C20.2027119,30.4867797 17.1749153,27.4589831 17.1749153,23.7525424 L17.1749153,6.89084746 Z" id="Path"></path>
                        </g>
                        <g id="Group" transform="translate(11.900000, 20.300000)" fill="#36C5F0" fill-rule="nonzero">
                            <path d="M23.9091525,13.7816949 C20.2027119,13.7816949 17.1749153,10.7538983 17.1749153,7.04745763 C17.1749153,3.34101695 20.2027119,0.313220339 23.9091525,0.313220339 C27.6155932,0.313220339 30.6433898,3.34101695 30.6433898,7.04745763 L30.6433898,13.7816949 L23.9091525,13.7816949 Z" id="Path"></path>
                            <path d="M23.9091525,17.1749153 C27.6155932,17.1749153 30.6433898,20.2027119 30.6433898,23.9091525 C30.6433898,27.6155932 27.6155932,30.6433898 23.9091525,30.6433898 L7.04745763,30.6433898 C3.34101695,30.6433898 0.313220339,27.6155932 0.313220339,23.9091525 C0.313220339,20.2027119 3.34101695,17.1749153 7.04745763,17.1749153 L23.9091525,17.1749153 Z" id="Path"></path>
                        </g>
                        <g id="Group" transform="translate(46.200000, 20.300000)" fill="#2EB67D" fill-rule="nonzero">
                            <path d="M17.0183051,23.9091525 C17.0183051,20.2027119 20.0461017,17.1749153 23.7525424,17.1749153 C27.4589831,17.1749153 30.4867797,20.2027119 30.4867797,23.9091525 C30.4867797,27.6155932 27.4589831,30.6433898 23.7525424,30.6433898 L17.0183051,30.6433898 L17.0183051,23.9091525 Z" id="Path"></path>
                            <path d="M13.6250847,23.9091525 C13.6250847,27.6155932 10.5972881,30.6433898 6.89084746,30.6433898 C3.18440678,30.6433898 0.156610169,27.6155932 0.156610169,23.9091525 L0.156610169,7.04745763 C0.156610169,3.34101695 3.18440678,0.313220339 6.89084746,0.313220339 C10.5972881,0.313220339 13.6250847,3.34101695 13.6250847,7.04745763 L13.6250847,23.9091525 Z" id="Path"></path>
                        </g>
                        <g id="Group" transform="translate(46.200000, 54.600000)" fill="#ECB22E" fill-rule="nonzero">
                            <path d="M6.89084746,17.0183051 C10.5972881,17.0183051 13.6250847,20.0461017 13.6250847,23.7525424 C13.6250847,27.4589831 10.5972881,30.4867797 6.89084746,30.4867797 C3.18440678,30.4867797 0.156610169,27.4589831 0.156610169,23.7525424 L0.156610169,17.0183051 L6.89084746,17.0183051 Z" id="Path"></path>
                            <path d="M6.89084746,13.6250847 C3.18440678,13.6250847 0.156610169,10.5972881 0.156610169,6.89084746 C0.156610169,3.18440678 3.18440678,0.156610169 6.89084746,0.156610169 L23.7525424,0.156610169 C27.4589831,0.156610169 30.4867797,3.18440678 30.4867797,6.89084746 C30.4867797,10.5972881 27.4589831,13.6250847 23.7525424,13.6250847 L6.89084746,13.6250847 Z" id="Path"></path>
                        </g>
                        <circle id="Oval" fill-opacity="0.85" fill="#F13833" cx="79.8" cy="16.8" r="16.8"></circle>
                        <text id="1" font-family="Roboto-Medium, Roboto" font-size="21" font-weight="400" fill="#FFFFFF">
                            <tspan x="73.5" y="23.9">1</tspan>
                        </text>
                    </g>
                    <g id="pete-head" transform="translate(17.000000, 18.000000)">
                        <g id="Group">
                            <g id="body" transform="translate(0.000000, 32.639344)">
                                <g id="ears" transform="translate(0.000000, 8.114754)">
                                    <path d="M13.8767725,0.0970656647 C15.0538483,0.0323552216 16.2309242,2.06080777e-16 17.408,0 C18.585075,2.06080622e-16 19.7621499,0.0323551732 20.9392249,0.0970655195 L20.939225,0.0970632145 C24.7563527,0.306911922 27.744,3.46331813 27.744,7.2862098 L27.7440007,9.84493692 C27.7440007,13.6678276 24.7563543,16.8242331 20.9392275,17.0340819 C19.7621517,17.0987923 18.5850758,17.1311475 17.408,17.1311475 C16.230925,17.1311475 15.0538501,17.0987924 13.8767751,17.034082 L13.876775,17.0340843 C10.0596473,16.8242356 7.072,13.6678294 7.072,9.84493774 L7.07199931,7.28621062 C7.07199931,3.46331993 10.0596457,0.306914475 13.8767725,0.0970656647 Z" id="Rectangle" stroke="#1B1B1B" stroke-width="2.16" fill="url(#linearGradient-1)"></path>
                                    <path d="M47.0607725,0.0970656647 C48.2378483,0.0323552216 49.4149242,2.06080777e-16 50.592,0 C51.769075,2.06080622e-16 52.9461499,0.0323551732 54.1232249,0.0970655195 L54.123225,0.0970632145 C57.9403527,0.306911922 60.928,3.46331813 60.928,7.2862098 L60.9280007,9.84493692 C60.9280007,13.6678276 57.9403543,16.8242331 54.1232275,17.0340819 C52.9461517,17.0987923 51.7690758,17.1311475 50.592,17.1311475 C49.414925,17.1311475 48.2378501,17.0987924 47.0607751,17.034082 L47.060775,17.0340843 C43.2436473,16.8242356 40.256,13.6678294 40.256,9.84493774 L40.2559993,7.28621062 C40.2559993,3.46331993 43.2436457,0.306914475 47.0607725,0.0970656647 Z" id="Rectangle" stroke="#1B1B1B" stroke-width="2.16" fill="url(#linearGradient-1)"></path>
                                    <path d="M5.43862451,6.85245902 L7.25333333,6.85245902 L7.25333333,10.2786885 L5.43862451,10.2786885 C4.89700589,11.0422583 4.00306945,11.5409836 2.992,11.5409836 C1.33956403,11.5409836 0,10.2088472 0,8.56557377 C0,6.92230029 1.33956403,5.59016393 2.992,5.59016393 C4.00306945,5.59016393 4.89700589,6.08888921 5.43862451,6.85245902 Z" id="Combined-Shape" fill="#1B1B1B"></path>
                                    <path d="M66.1852912,7.03278689 L68,7.03278689 L68,10.4590164 L66.1852912,10.4590164 C65.6436726,11.2225862 64.7497361,11.7213115 63.7386667,11.7213115 C62.0862307,11.7213115 60.7466667,10.3891751 60.7466667,8.74590164 C60.7466667,7.10262816 62.0862307,5.7704918 63.7386667,5.7704918 C64.7497361,5.7704918 65.6436726,6.26921708 66.1852912,7.03278689 Z" id="Combined-Shape" fill="#1B1B1B" transform="translate(64.373333, 8.745902) scale(-1, 1) translate(-64.373333, -8.745902) "></path>
                                </g>
                                <path d="M22.1028371,0.570918775 C26.0685581,0.190306258 30.034279,6.97454515e-16 34,0 C37.9657211,6.97454538e-16 41.9314422,0.190306271 45.8971632,0.570918813 L45.8971632,0.570919145 C50.5134527,1.0139704 54.0373333,4.8922502 54.0373333,9.52975206 L54.037333,23.830904 C54.037333,28.4684059 50.5134524,32.3466857 45.8971629,32.789737 C41.9314419,33.1703495 37.965721,33.3606557 34,33.3606557 C30.0342789,33.3606557 26.0685578,33.1703495 22.1028368,32.7897369 L22.1028368,32.7897366 C17.4865473,32.3466853 13.9626667,28.4684055 13.9626667,23.8309037 L13.962667,9.52975173 C13.962667,4.89224984 17.4865476,1.01397002 22.1028371,0.570918775 Z" id="head" stroke="#1B1B1B" stroke-width="2.16" fill="url(#linearGradient-2)"></path>
                                <polyline id="Line-3" stroke="#1B1B1B" stroke-width="2.16" stroke-linecap="square" points="52.8586667 20.9180328 48.0533333 20.9180328 43.3386667 26.3278689 33.728 26.3278689 24.2986667 26.3278689 19.584 20.9180328 14.688 20.9180328"></polyline>
                            </g>
                            <g id="eyes" transform="translate(22.666667, 42.016393)">
                                <g id="Group-4">
                                    <ellipse id="Oval-3" stroke="#1B1B1B" stroke-width="2.16" fill="#43B4BB" cx="4.26133333" cy="4.23770492" rx="4.26133333" ry="4.23770492"></ellipse>
                                    <ellipse id="Oval-4" fill="#FFFFFF" cx="2.35733333" cy="3.78688525" rx="1" ry="1"></ellipse>
                                    <ellipse id="Oval-4" fill="#FFFFFF" cx="2.90133333" cy="2.3442623" rx="1" ry="1"></ellipse>
                                </g>
                                <g id="Group-4" transform="translate(14.506667, 0.000000)">
                                    <ellipse id="Oval-3" stroke="#1B1B1B" stroke-width="2.16" fill="#57D9E0" cx="4.26133333" cy="4.23770492" rx="4.26133333" ry="4.23770492"></ellipse>
                                    <ellipse id="Oval-4" fill="#FFFFFF" cx="2.35733333" cy="3.78688525" rx="1" ry="1"></ellipse>
                                    <ellipse id="Oval-4" fill="#FFFFFF" cx="2.90133333" cy="2.3442623" rx="1" ry="1"></ellipse>
                                </g>
                            </g>
                            <g id="siren" transform="translate(16.138667, 0.000000)">
                                <path d="M13.8809534,17.8959421 C15.0450727,17.7467348 16.3718661,17.6721311 17.8613336,17.6721311 C19.3507965,17.6721311 20.6775862,17.7467343 21.8417028,17.8959407 L21.8417037,17.8959344 C23.4812955,18.106083 24.7670839,19.4058037 24.9595506,21.0475651 L26.0703043,30.5224092 C26.3018023,32.4971114 24.888656,34.28559 22.9139538,34.5170879 C22.908896,34.5176808 22.903837,34.518263 22.8987768,34.5188345 C21.2196291,34.708464 19.5404813,34.8032787 17.8613336,34.8032787 C16.1821836,34.8032787 14.5030336,34.7084637 12.8238835,34.5188337 L12.8238842,34.5188276 C10.8482211,34.2957117 9.42750084,32.5132492 9.65061666,30.5375861 C9.65118809,30.5325261 9.65177026,30.5274674 9.65236317,30.5224098 L10.7631059,21.0475751 C10.9555726,19.405813 12.241361,18.1060916 13.8809534,17.8959421 Z" id="Rectangle" stroke="#1B1B1B" stroke-width="2.16" fill="url(#linearGradient-3)"></path>
                                <path d="M16.1386667,20.7377049 C15.0033264,20.8900914 14.2993611,21.149841 14.0267708,21.5169538 C13.7541806,21.8840666 13.3097014,24.75 12.6933333,30.1147541" id="Line" stroke="#FFFFFF" stroke-width="0.72" stroke-linecap="square"></path>
                                <g id="highlights" stroke="#B23534" stroke-linecap="square" stroke-width="0.9">
                                    <path d="M0.0906666667,4.41803279 L9.08653711,15.7355133" id="Line-2"></path>
                                    <path d="M17.7706667,0 L17.7706667,14.4262295" id="Line-2"></path>
                                    <path d="M25.1146667,6.22131148 L22.4853333,14.4262295" id="Line-2"></path>
                                    <path d="M12.9653333,6.04098361 L10.336,14.2459016" id="Line-2" transform="translate(11.696000, 10.098361) scale(-1, 1) translate(-11.696000, -10.098361) "></path>
                                    <path d="M26.2933333,4.50819672 L35.2892038,15.8256772" id="Line-2" transform="translate(30.791269, 10.166937) scale(-1, 1) translate(-30.791269, -10.166937) "></path>
                                </g>
                            </g>
                        </g>
                    </g>
                    <rect id="Rectangle" fill="#2EB67D" x="100" y="90" width="6" height="49" rx="3"></rect>
                    <rect id="Rectangle" fill="#575659" x="100" y="151" width="6" height="41" rx="3"></rect>
                    <text id="scss" font-family="Roboto-Bold, Roboto" font-size="14" font-weight="bold" fill="#232325">
                        <tspan x="116" y="102">scss</tspan>
                    </text>
                    <text id="app/assets/main.scss" font-family="Roboto-Regular, Roboto" font-size="14" font-weight="normal" fill="#232325">
                        <tspan x="116" y="118">app/assets/main.scss</tspan>
                        <tspan x="116" y="134">app/assets/button.scss</tspan>
                    </text>
                    <text id="Looks-like-Bobby-Tab" font-family="Roboto-Regular, Roboto" font-size="14" font-weight="normal" fill="#232325">
                        <tspan x="99" y="61">Looks like </tspan>
                        <tspan x="165.055664" y="61" font-family="Roboto-Bold, Roboto" font-weight="bold">Bobby Tables</tspan>
                        <tspan x="250.709961" y="61"> just opened a PR that changes </tspan>
                        <tspan x="99" y="77">something you’re monitoring:</tspan>
                    </text>
                    <text id="PR-Patrol" font-family="Roboto-Bold, Roboto" font-size="18" font-weight="bold" fill="#000000">
                        <tspan x="100" y="40">PR Patrol</tspan>
                    </text>
                </g>
            </g>
            <g id="set-up-patrols" transform="translate(77.000000, 783.000000)"></g>
        </g>
    </g>
</svg>