<?xml version="1.0" standalone="no"?>
<!DOCTYPE svg PUBLIC "-//W3C//DTD SVG 20010904//EN"
 "http://www.w3.org/TR/2001/REC-SVG-20010904/DTD/svg10.dtd">
<svg version="1.0" xmlns="http://www.w3.org/2000/svg"
 width="375.000000pt" height="375.000000pt" viewBox="0 0 375.000000 375.000000"
 preserveAspectRatio="xMidYMid meet">
<metadata>
Created by potrace 1.11, written by Peter Selinger 2001-2013
</metadata>
<g transform="translate(0.000000,375.000000) scale(0.100000,-0.100000)"
fill="#000000" stroke="none">
<path d="M1850 3320 c0 -413 0 -420 20 -420 20 0 20 7 20 420 0 413 0 420 -20
420 -20 0 -20 -7 -20 -420z"/>
<path d="M878 3493 c-14 -17 5 -44 236 -335 138 -174 257 -323 264 -330 10
-10 15 -9 28 4 15 15 -5 43 -246 347 -144 182 -263 331 -264 331 -2 0 -10 -8
-18 -17z"/>
<path d="M2570 3175 c-140 -179 -256 -329 -258 -334 -2 -5 5 -14 16 -20 16 -9
49 29 281 322 236 299 260 333 245 344 -10 7 -20 13 -23 12 -3 0 -121 -146
-261 -324z"/>
<path d="M1445 3400 c-4 -6 28 -121 71 -256 72 -226 79 -244 98 -238 12 4 22
7 23 8 2 1 -32 112 -75 247 -56 176 -82 245 -94 247 -9 2 -19 -2 -23 -8z"/>
<path d="M2257 3393 c-7 -12 -157 -486 -154 -489 1 -1 11 -4 23 -8 19 -6 26
12 98 238 43 135 75 250 71 256 -7 12 -32 14 -38 3z"/>
<path d="M1674 2790 c-112 -16 -177 -58 -220 -142 -21 -41 -30 -92 -60 -346
-19 -163 -34 -309 -32 -324 4 -26 4 -27 -71 -33 -257 -21 -427 -125 -521 -319
-22 -45 -40 -89 -40 -98 0 -10 -21 -21 -65 -33 -164 -44 -292 -185 -326 -358
-7 -31 -16 -57 -21 -57 -6 0 -23 11 -40 25 -86 72 -215 49 -258 -48 -25 -53
-25 -91 0 -144 43 -97 172 -120 258 -48 17 14 34 25 40 25 5 0 14 -26 21 -58
34 -172 162 -313 326 -357 44 -12 65 -23 65 -33 0 -9 18 -53 40 -98 71 -148
215 -263 371 -298 245 -55 1223 -55 1468 0 156 35 300 150 371 298 22 45 40
89 40 98 0 10 21 21 65 33 162 43 290 183 325 352 6 29 16 53 22 53 5 0 23
-11 40 -25 86 -72 215 -49 258 48 11 23 20 56 20 72 0 17 -9 49 -20 72 -43 97
-172 120 -258 48 -17 -14 -34 -25 -39 -25 -5 0 -15 28 -21 61 -33 177 -161
319 -327 364 -44 12 -65 23 -65 33 0 9 -18 53 -40 98 -94 194 -264 298 -521
319 -75 6 -75 7 -71 33 2 15 -13 161 -32 324 -30 255 -39 304 -60 347 -31 61
-86 107 -151 127 -59 18 -374 28 -471 14z m126 -218 c0 -15 -13 -22 -55 -31
-31 -7 -59 -20 -64 -29 -11 -21 -71 -421 -71 -474 0 -4 -9 -8 -20 -8 -26 0
-26 7 5 237 38 279 40 283 112 309 56 20 93 18 93 -4z m-342 -772 c76 -60 98
-64 412 -64 315 0 346 5 423 66 37 29 38 29 130 23 185 -14 265 -43 357 -131
124 -118 140 -183 140 -586 l0 -298 -152 -1 -153 0 -128 -150 -128 -149 -494
0 -493 0 -129 150 -128 149 -143 1 -144 0 4 328 c4 302 6 331 26 384 25 69 67
132 119 179 82 74 159 105 294 118 143 14 147 14 187 -19z m-748 -816 l0 -395
-22 7 c-78 23 -163 96 -198 168 -26 55 -40 132 -40 221 0 143 30 231 103 305
36 36 125 90 150 90 4 0 7 -178 7 -396z m2399 371 c70 -35 135 -105 163 -173
20 -50 22 -75 22 -197 0 -169 -17 -227 -91 -300 -41 -42 -127 -95 -153 -95 -7
0 -10 130 -10 395 0 265 3 395 10 395 6 0 32 -11 59 -25z m-1932 -815 l128
-149 560 0 560 0 128 150 128 149 120 0 119 0 0 -62 c0 -80 -22 -184 -51 -239
-30 -59 -119 -150 -177 -182 -27 -15 -78 -33 -113 -41 -258 -58 -1277 -49
-1452 13 -89 31 -168 93 -226 178 -36 53 -61 142 -68 241 l-6 92 111 0 110 0
129 -150z"/>
<path d="M1364 1426 c-189 -88 -235 -334 -89 -481 86 -85 224 -111 331 -61
110 51 174 151 174 271 0 120 -64 220 -174 271 -71 33 -171 33 -242 0z m213
-128 c104 -62 102 -224 -3 -289 -49 -30 -129 -30 -178 0 -52 32 -79 82 -79
146 0 137 142 215 260 143z"/>
<path d="M2200 1441 c-73 -24 -145 -85 -183 -156 -18 -32 -22 -57 -22 -130 0
-103 16 -143 82 -208 65 -66 105 -82 208 -82 103 0 143 16 208 82 66 65 82
105 82 208 0 103 -16 143 -82 208 -58 59 -106 80 -193 83 -41 2 -86 0 -100 -5z
m160 -133 c77 -39 114 -121 90 -201 -24 -80 -114 -138 -192 -123 -168 32 -199
257 -44 327 54 25 92 24 146 -3z"/>
</g>
</svg>
