<?xml version="1.0" standalone="no"?>
<!DOCTYPE svg PUBLIC "-//W3C//DTD SVG 20010904//EN"
 "http://www.w3.org/TR/2001/REC-SVG-20010904/DTD/svg10.dtd">
<svg version="1.0" xmlns="http://www.w3.org/2000/svg"
 width="375.000000pt" height="375.000000pt" viewBox="0 0 375.000000 375.000000"
 preserveAspectRatio="xMidYMid meet">
<metadata>
Created by potrace 1.11, written by Peter Selinger 2001-2013
</metadata>
<g transform="translate(0.000000,375.000000) scale(0.100000,-0.100000)"
fill="#000000" stroke="none">
<path d="M1705 3738 c-108 -9 -178 -40 -229 -100 -43 -50 -62 -106 -76 -223
-6 -49 -12 -103 -15 -120 -4 -29 -8 -63 -21 -185 -3 -30 -7 -71 -10 -90 -2
-19 -5 -56 -6 -82 -2 -35 -6 -46 -18 -46 -29 2 -155 -13 -200 -24 -51 -12
-153 -58 -189 -85 -98 -74 -174 -175 -208 -272 -18 -52 -20 -54 -73 -71 -119
-37 -214 -109 -274 -208 -36 -61 -66 -147 -66 -194 0 -34 -7 -35 -44 -3 -142
122 -338 -36 -252 -203 21 -41 67 -69 123 -78 49 -7 88 5 130 42 36 31 43 30
43 -5 0 -46 35 -146 69 -200 63 -97 153 -165 270 -201 52 -17 56 -20 72 -67
25 -75 67 -140 138 -215 l35 -38 -17 -35 c-24 -50 -22 -79 17 -196 18 -57 75
-232 126 -389 130 -401 122 -383 179 -419 l48 -31 611 0 611 0 43 29 c24 16
49 40 56 53 12 22 30 78 183 553 40 121 79 244 89 274 13 39 15 62 9 85 -16
56 -10 76 40 134 62 73 99 132 120 195 16 47 20 50 72 67 87 27 140 59 205
124 68 68 110 148 128 238 6 32 14 58 18 58 4 0 15 -9 26 -20 23 -25 83 -50
119 -50 47 1 108 35 133 75 81 132 -35 289 -182 246 -22 -7 -51 -23 -65 -37
-32 -32 -38 -30 -41 13 -2 20 -12 64 -23 97 -50 150 -162 257 -318 306 -51 16
-55 20 -75 71 -34 86 -61 130 -118 190 -110 117 -231 172 -398 185 -47 3 -87
8 -90 11 -3 3 -5 17 -6 31 0 15 -4 54 -8 87 -4 33 -9 80 -12 105 -3 25 -9 81
-14 125 -5 44 -12 103 -15 130 -13 109 -16 130 -25 166 -21 76 -102 156 -181
179 -81 24 -280 31 -444 18z"/>
</g>
</svg>
