<?xml version="1.0" encoding="UTF-8"?>
<svg width="375px" height="494px" viewBox="0 0 375 494" version="1.1" xmlns="http://www.w3.org/2000/svg" xmlns:xlink="http://www.w3.org/1999/xlink">
    <!-- Generator: Sketch 49 (51002) - http://www.bohemiancoding.com/sketch -->
    <title>pete</title>
    <desc>Created with Sketch.</desc>
    <defs>
        <linearGradient x1="49.3120631%" y1="50.5387214%" x2="49.5779256%" y2="50.5387214%" id="linearGradient-1">
            <stop stop-color="#4CA8F3" offset="0%"></stop>
            <stop stop-color="#59B4FF" offset="100%"></stop>
        </linearGradient>
        <linearGradient x1="49.3120631%" y1="50.5387214%" x2="49.5779256%" y2="50.5387214%" id="linearGradient-2">
            <stop stop-color="#B23533" offset="0%"></stop>
            <stop stop-color="#DD3B34" offset="100%"></stop>
        </linearGradient>
    </defs>
    <g id="Page-1" stroke="none" stroke-width="1" fill="none" fill-rule="evenodd">
        <g id="pete" transform="translate(0.000000, 3.000000)">
            <g id="Group">
                <g id="body" transform="translate(0.000000, 181.000000)">
                    <path d="M152.55366,141.853983 C163.229025,140.617994 175.035804,140 187.973997,140 C200.912189,140 212.718968,140.617994 223.394333,141.853983 L223.394333,141.853982 C239.85293,143.75955 251.650491,158.646648 249.744923,175.105246 C249.708902,175.416359 249.668012,175.726889 249.622267,176.036722 L234.805012,276.394851 C232.932758,289.075737 223.210431,299.166131 210.607833,301.508083 C203.063221,302.910106 195.518609,303.611117 187.973997,303.611117 C180.429385,303.611117 172.884772,302.910106 165.34016,301.508083 L165.34016,301.508083 C152.737564,299.16613 143.015237,289.075737 141.142982,276.394851 L126.325727,176.036722 C123.905718,159.645866 135.231328,144.396647 151.622184,141.976639 C151.932017,141.930894 152.242547,141.890004 152.55366,141.853983 Z" id="bottom" stroke="#1B1B1B" stroke-width="12" fill="url(#linearGradient-1)"></path>
                    <path d="M141.169641,95.1846946 C155.0605,93.7282315 170.460933,93 187.370941,93 C204.4668,93 220.01972,93.7443269 234.029701,95.2329808 L234.029701,95.2329814 C258.28683,97.8104631 277.143404,117.515852 278.651024,141.862901 C279.535217,156.142025 278.739215,170.687725 276.263018,185.5 C272.66253,207.037623 265.698162,228.011646 255.369914,248.422066 L255.369913,248.422066 C248.315875,262.362076 235.151398,272.203581 219.785036,275.024622 C208.980338,277.008207 198.175639,278 187.370941,278 C176.772637,278 166.174333,277.045736 155.576029,275.137209 L155.576029,275.137208 C140.032335,272.338122 126.724945,262.359613 119.682822,248.222788 C108.927917,226.632675 101.859931,205.725079 98.4788643,185.5 C96.0728291,171.107426 95.4183033,156.369222 96.5152868,141.28539 L96.5152861,141.28539 C98.2718377,117.132309 117.0848,97.7100015 141.169641,95.1846946 Z" stroke="#1B1B1B" stroke-width="12" fill="url(#linearGradient-1)"></path>
                    <g id="arms" transform="translate(93.000000, 171.000000)" stroke="#1B1B1B" stroke-width="12">
                        <path d="M134.597549,3.85615936 L166.597556,3.85615896 C169.35898,3.85615896 171.597556,6.09473521 171.597556,8.85615896 C171.597556,8.85615909 171.597556,8.85615923 171.597556,8.85615936 L171.597546,95.2881661 C171.597546,96.3300932 171.272048,97.3459919 170.666533,98.1939092 C164.351875,107.036479 157.851461,111.457763 151.165291,111.457763 C144.494553,111.457763 137.666482,107.056864 130.681077,98.2550663 L130.681073,98.2550691 C129.979428,97.370978 129.597549,96.2754992 129.597549,95.1468176 L129.597549,8.85615936 C129.597549,6.09473561 131.836125,3.85615936 134.597549,3.85615936 Z" id="Rectangle-5" fill="#59B4FF" transform="translate(150.597553, 57.656961) rotate(18.000000) translate(-150.597553, -57.656961) "></path>
                        <path d="M20.5975488,3.85615936 L52.5975562,3.85615896 C55.35898,3.85615896 57.5975562,6.09473521 57.5975562,8.85615896 C57.5975562,8.85615909 57.5975562,8.85615923 57.5975562,8.85615936 L57.5975464,95.2881661 C57.5975463,96.3300932 57.2720476,97.3459919 56.6665327,98.1939092 C50.3518752,107.036479 43.8514613,111.457763 37.1652912,111.457763 C30.4945532,111.457763 23.6664816,107.056864 16.6810765,98.2550663 L16.681073,98.2550691 C15.9794284,97.370978 15.5975488,96.2754992 15.5975488,95.1468176 L15.5975488,8.85615936 C15.5975488,6.09473561 17.836125,3.85615936 20.5975488,3.85615936 Z" id="Rectangle-5" fill="#4CA8F3" transform="translate(36.597553, 57.656961) scale(-1, 1) rotate(18.000000) translate(-36.597553, -57.656961) "></path>
                    </g>
                    <g id="ears" transform="translate(0.000000, 45.000000)">
                        <path d="M76.825958,0.521835982 C83.2173053,0.173945327 89.6086527,1.12522728e-15 96,0 C102.391348,1.12522732e-15 108.782695,0.173945342 115.174043,0.521836026 L115.174043,0.521836757 C136.389297,1.67661504 153,19.2160521 153,40.4627116 L153,54.5372882 C153,75.7839482 136.389297,93.3233858 115.174042,94.478164 C108.782695,94.8260547 102.391347,95 96,95 C89.6086524,95 83.2173048,94.8260547 76.8259572,94.478164 L76.8259572,94.4781632 C55.6107027,93.323385 39,75.7839479 39,54.5372884 L38.9999997,40.4627118 C38.9999997,19.2160518 55.6107029,1.67661425 76.825958,0.521835982 Z" id="Rectangle" stroke="#1B1B1B" stroke-width="12" fill="url(#linearGradient-1)"></path>
                        <path d="M259.825958,0.521835982 C266.217305,0.173945327 272.608653,1.12522728e-15 279,0 C285.391348,1.12522732e-15 291.782695,0.173945342 298.174043,0.521836026 L298.174043,0.521836757 C319.389297,1.67661504 336,19.2160521 336,40.4627116 L336,54.5372882 C336,75.7839482 319.389297,93.3233858 298.174042,94.478164 C291.782695,94.8260547 285.391347,95 279,95 C272.608652,95 266.217305,94.8260547 259.825957,94.478164 L259.825957,94.4781632 C238.610703,93.323385 222,75.7839479 222,54.5372884 L222,40.4627118 C222,19.2160518 238.610703,1.67661425 259.825958,0.521835982 Z" id="Rectangle" stroke="#1B1B1B" stroke-width="12" fill="url(#linearGradient-1)"></path>
                        <path d="M29.9924146,38 L40,38 L40,57 L29.9924146,57 C27.0055472,61.2343417 22.0757506,64 16.5,64 C7.38730163,64 0,56.6126984 0,47.5 C0,38.3873016 7.38730163,31 16.5,31 C22.0757506,31 27.0055472,33.7656583 29.9924146,38 Z" id="Combined-Shape" fill="#1B1B1B"></path>
                        <path d="M364.992415,39 L375,39 L375,58 L364.992415,58 C362.005547,62.2343417 357.075751,65 351.5,65 C342.387302,65 335,57.6126984 335,48.5 C335,39.3873016 342.387302,32 351.5,32 C357.075751,32 362.005547,34.7656583 364.992415,39 Z" id="Combined-Shape" fill="#1B1B1B" transform="translate(355.000000, 48.500000) scale(-1, 1) translate(-355.000000, -48.500000) "></path>
                    </g>
                    <path d="M122.220723,3.13422824 C143.980482,1.04474275 165.740241,3.8482441e-15 187.5,0 C209.259759,3.84824409e-15 231.019518,1.04474274 252.779276,3.13422822 L252.779276,3.13422795 C278.424273,5.59679416 298,27.1423303 298,52.9052892 L297.999999,132.094712 C297.999999,157.85767 278.424272,179.403206 252.779277,181.865772 C231.019518,183.955257 209.259759,185 187.5,185 C165.740241,185 143.980482,183.955257 122.220724,181.865772 L122.220724,181.865772 C96.5757274,179.403206 77,157.85767 77,132.094711 L77.000001,52.9052883 C77.000001,27.14233 96.5757279,5.5967944 122.220723,3.13422824 Z" id="head" stroke="#1B1B1B" stroke-width="12" fill="url(#linearGradient-1)"></path>
                    <polyline id="Line-3" stroke="#1B1B1B" stroke-width="12" stroke-linecap="square" points="291.5 116 265 116 239 146 186 146 134 146 108 116 81 116"></polyline>
                </g>
                <g id="eyes" transform="translate(125.000000, 233.000000)">
                    <g id="Group-4">
                        <circle id="Oval-3" stroke="#1B1B1B" stroke-width="12" fill="#43B4BB" cx="23.5" cy="23.5" r="23.5"></circle>
                        <circle id="Oval-4" fill="#FFFFFF" cx="13" cy="21" r="5"></circle>
                        <circle id="Oval-4" fill="#FFFFFF" cx="16" cy="13" r="3"></circle>
                    </g>
                    <g id="Group-4" transform="translate(80.000000, 0.000000)">
                        <circle id="Oval-3" stroke="#1B1B1B" stroke-width="12" fill="#57D9E0" cx="23.5" cy="23.5" r="23.5"></circle>
                        <circle id="Oval-4" fill="#FFFFFF" cx="13" cy="21" r="5"></circle>
                        <circle id="Oval-4" fill="#FFFFFF" cx="16" cy="13" r="3"></circle>
                    </g>
                </g>
                <g id="siren" transform="translate(89.000000, 0.000000)">
                    <path d="M76.6832882,99.2239504 C83.0708461,98.4079835 90.3430839,98 98.5000015,98 C106.656919,98 113.929157,98.4079835 120.316714,99.2239504 L120.316714,99.2239517 C129.433892,100.388609 136.583574,107.617353 137.6479,116.746787 L143.768587,169.248019 C145.047652,180.219408 137.19047,190.150362 126.219081,191.429426 C126.195852,191.432135 126.172618,191.434802 126.14938,191.437428 C116.932921,192.479143 107.716461,193 98.5000015,193 C89.2835415,193 80.0670815,192.479143 70.8506215,191.437428 L70.8506216,191.437428 C59.8748137,190.196858 51.9828435,180.293528 53.2234129,169.31772 C53.2260395,169.294482 53.2287068,169.271248 53.2314148,169.24802 L59.3521017,116.746787 C60.4164273,107.617352 67.5661094,100.388608 76.6832882,99.2239504 Z" id="Rectangle" stroke="#1B1B1B" stroke-width="12" fill="url(#linearGradient-2)"></path>
                    <path d="M89,115 C82.7389323,115.845052 78.8567708,117.285482 77.3535156,119.321289 C75.8502604,121.357096 73.3990885,137.25 70,167" id="Line" stroke="#FFFFFF" stroke-width="4" stroke-linecap="square"></path>
                    <g id="highlights" stroke="#532929" stroke-linecap="square" stroke-width="5">
                        <path d="M0.5,24.5 L50.1095797,87.2605737" id="Line-2"></path>
                        <path d="M98,0 L98,80" id="Line-2"></path>
                        <path d="M138.5,34.5 L124,80" id="Line-2"></path>
                        <path d="M71.5,33.5 L57,79" id="Line-2" transform="translate(64.500000, 56.000000) scale(-1, 1) translate(-64.500000, -56.000000) "></path>
                        <path d="M145,25 L194.60958,87.7605737" id="Line-2" transform="translate(169.804790, 56.380287) scale(-1, 1) translate(-169.804790, -56.380287) "></path>
                    </g>
                </g>
            </g>
        </g>
    </g>
</svg>